<svg width="76" height="76" viewBox="0 0 76 76" fill="#fff" xmlns="http://www.w3.org/2000/svg">
<path d="M38 0C27.9218 0 18.2563 4.00356 11.1299 11.1299C4.00356 18.2563 0 27.9218 0 38C0 48.0782 4.00356 57.7437 11.1299 64.8701C18.2563 71.9964 27.9218 76 38 76C48.0782 76 57.7437 71.9964 64.8701 64.8701C71.9964 57.7437 76 48.0782 76 38C76 27.9218 71.9964 18.2563 64.8701 11.1299C57.7437 4.00356 48.0782 0 38 0ZM48.0162 68.9795H47.7217C47.5002 68.9945 47.2781 68.9628 47.0697 68.8864C46.8613 68.8101 46.6713 68.6907 46.512 68.5362C46.3615 68.3806 46.2445 68.1957 46.1683 67.9931C46.092 67.7905 46.0581 67.5744 46.0687 67.3582V62.9058C46.0898 61.4259 46.1003 59.9313 46.1003 58.4218C46.0949 57.3196 45.9339 56.2237 45.6222 55.1665C45.3269 54.0977 44.7313 53.1361 43.9058 52.3957C46.1131 52.1831 48.2828 51.6816 50.3595 50.9042C52.1114 50.2381 53.696 49.1961 55.0018 47.8515C56.2907 46.4993 57.2502 44.8653 57.8043 43.0825C58.4769 40.8988 58.7975 38.622 58.7543 36.3375C58.7694 34.7421 58.4903 33.1577 57.931 31.6635C57.3648 30.1571 56.5096 28.7759 55.4135 27.5975C55.6505 27.0035 55.8225 26.3855 55.9265 25.7545C56.0321 25.1212 56.0848 24.4836 56.0848 23.8418C56.0848 23.0143 55.9898 22.1983 55.7998 21.394C55.631 20.5713 55.397 19.7634 55.1 18.9778C54.9879 18.9347 54.8686 18.9132 54.7485 18.9145H54.4002C53.6697 18.9229 52.9583 19.0401 52.2658 19.266C51.5042 19.4844 50.7601 19.7596 50.0397 20.0893C49.3232 20.414 48.6245 20.7766 47.9465 21.1755C47.2667 21.5787 46.6619 21.9608 46.132 22.3218C40.8043 20.8406 35.1735 20.8406 29.8458 22.3218C29.2514 21.9252 28.6474 21.543 28.0345 21.1755C27.3486 20.7702 26.6378 20.4085 25.9065 20.0925C25.1867 19.7552 24.4399 19.4788 23.674 19.266C22.9973 19.0423 22.2903 18.9237 21.5777 18.9145H21.2293C21.1103 18.9136 20.9921 18.9351 20.881 18.9778C20.5849 19.7662 20.3416 20.5734 20.1527 21.394C19.9838 22.2004 19.8983 23.0164 19.8962 23.8418C19.8962 24.4836 19.95 25.1212 20.0577 25.7545C20.1653 26.3878 20.3342 27.0022 20.5643 27.5975C19.4713 28.7776 18.6194 30.1599 18.0563 31.6667C17.4938 33.1602 17.2115 34.7447 17.2235 36.3407C17.1807 38.6129 17.4927 40.8779 18.1482 43.054C18.7213 44.8368 19.6777 46.474 20.9475 47.8547C22.2617 49.191 23.845 50.2297 25.5898 50.9073C27.6577 51.699 29.8237 52.2057 32.0277 52.4147C31.4102 52.9705 30.9217 53.6547 30.5963 54.4192C30.2848 55.174 30.072 55.9659 29.963 56.7752C28.8012 57.3319 27.5304 57.6239 26.2422 57.6302C25.0461 57.6754 23.8662 57.3431 22.8697 56.6802C21.9145 55.9727 21.1058 55.0865 20.4883 54.0708C20.213 53.6435 19.9038 53.239 19.5637 52.8612C19.2059 52.463 18.8115 52.0994 18.3857 51.775C17.9668 51.46 17.5064 51.2042 17.0177 51.015C16.5374 50.8044 16.0189 50.6956 15.4945 50.6952C15.3678 50.6994 15.2412 50.7099 15.1145 50.7268C14.9416 50.7279 14.7694 50.7491 14.6015 50.7902C14.454 50.8282 14.3145 50.8926 14.1898 50.9802C14.1339 51.0124 14.087 51.0585 14.0538 51.1139C14.0205 51.1693 14.002 51.2323 13.9998 51.2968C14.0131 51.4492 14.0597 51.5969 14.1363 51.7293C14.2129 51.8617 14.3177 51.9757 14.4432 52.0632C14.7387 52.2975 14.9836 52.478 15.1778 52.6047L15.2728 52.6712C15.6951 52.9984 16.0983 53.3499 16.4825 53.7257C16.8393 54.0381 17.1559 54.3864 17.4325 54.7707C17.7196 55.1464 17.9634 55.5486 18.164 55.9772C18.3962 56.3994 18.6401 56.8881 18.8955 57.4433C19.4908 58.9443 20.5485 60.2142 21.9165 61.0692C23.351 61.8387 24.9597 62.2218 26.5905 62.1807C27.1436 62.1807 27.6946 62.149 28.2435 62.0857C28.7882 61.9991 29.3318 61.9031 29.8743 61.7975V67.317C29.8842 67.5395 29.847 67.7617 29.7651 67.9688C29.6833 68.176 29.5586 68.3636 29.3993 68.5193C29.24 68.675 29.0497 68.7954 28.8407 68.8725C28.6317 68.9496 28.4088 68.9818 28.1865 68.9668H27.9902C20.6056 66.5813 14.3154 61.6375 10.2523 55.0259C6.18916 48.4143 4.62006 40.5693 5.82756 32.9035C7.03505 25.2377 10.9398 18.2549 16.8387 13.2125C22.7375 8.17006 30.2429 5.39939 38.0032 5.39939C45.7635 5.39939 53.2688 8.17006 59.1677 13.2125C65.0665 18.2549 68.9713 25.2377 70.1788 32.9035C71.3863 40.5693 69.8172 48.4143 65.754 55.0259C61.6909 61.6375 55.4007 66.5813 48.0162 68.9668V68.9795Z" fill="black"/>
</svg>
