<svg width="22" height="16" viewBox="0 0 22 16" fill="none" xmlns="http://www.w3.org/2000/svg">
<path d="M0.760742 1.91018C0.760742 1.6506 0.86386 1.40165 1.04741 1.2181C1.23096 1.03454 1.47991 0.931427 1.73949 0.931427H15.442C15.7016 0.931427 15.9505 1.03454 16.1341 1.2181C16.3176 1.40165 16.4207 1.6506 16.4207 1.91018C16.4207 2.16976 16.3176 2.41871 16.1341 2.60226C15.9505 2.78581 15.7016 2.88893 15.442 2.88893H1.73949C1.47991 2.88893 1.23096 2.78581 1.04741 2.60226C0.86386 2.41871 0.760742 2.16976 0.760742 1.91018ZM0.760742 14.9602C0.760742 14.7006 0.86386 14.4516 1.04741 14.2681C1.23096 14.0845 1.47991 13.9814 1.73949 13.9814H14.137C14.3966 13.9814 14.6455 14.0845 14.8291 14.2681C15.0126 14.4516 15.1157 14.7006 15.1157 14.9602C15.1157 15.2198 15.0126 15.4687 14.8291 15.6523C14.6455 15.8358 14.3966 15.9389 14.137 15.9389H1.73949C1.47991 15.9389 1.23096 15.8358 1.04741 15.6523C0.86386 15.4687 0.760742 15.2198 0.760742 14.9602ZM1.73949 7.45643C1.47991 7.45643 1.23096 7.55955 1.04741 7.7431C0.86386 7.92665 0.760742 8.1756 0.760742 8.43518C0.760742 8.69476 0.86386 8.94371 1.04741 9.12726C1.23096 9.31081 1.47991 9.41393 1.73949 9.41393H20.662C20.9216 9.41393 21.1705 9.31081 21.3541 9.12726C21.5376 8.94371 21.6407 8.69476 21.6407 8.43518C21.6407 8.1756 21.5376 7.92665 21.3541 7.7431C21.1705 7.55955 20.9216 7.45643 20.662 7.45643H1.73949Z" fill="white"/>
</svg>
