<svg width="100" height="100" viewBox="0 0 100 100" fill="none" xmlns="http://www.w3.org/2000/svg">
<path d="M85.2 85.215H70.39V62.015C70.39 56.48 70.275 49.36 62.67 49.36C54.95 49.36 53.77 55.38 53.77 61.605V85.215H38.965V37.5H53.185V44H53.38C55.365 40.25 60.2 36.3 67.42 36.3C82.425 36.3 85.2 46.17 85.2 59.025V85.215ZM22.235 30.97C17.465 30.97 13.635 27.115 13.635 22.37C13.635 17.625 17.47 13.77 22.235 13.77C24.5159 13.77 26.7033 14.6761 28.3161 16.2889C29.9289 17.9017 30.835 20.0891 30.835 22.37C30.835 24.6509 29.9289 26.8383 28.3161 28.4511C26.7033 30.0639 24.5159 30.97 22.235 30.97ZM29.655 85.22H14.805V37.5H29.655V85.22ZM92.61 0H7.38C3.3 0 0 3.225 0 7.2V92.8C0 96.775 3.3 100 7.38 100H92.59C96.665 100 100 96.78 100 92.8V7.2C100 3.23 96.665 0 92.59 0H92.61Z" fill="black"/>
</svg>
