<svg width="59" height="54" viewBox="0 0 59 54" fill="none" xmlns="http://www.w3.org/2000/svg">
<path d="M10.1032 0H48.0774V54H42.5032V29.2645H42.4485C41.8325 22.4282 36.087 17.071 29.0903 17.071C22.0936 17.071 16.3482 22.4282 15.7321 29.2645H15.6774V54H10.1032V0Z" fill="white"/>
<path d="M0 7.66452L2.26452 15.329H4.18065V46.3355C3.2186 46.3355 2.43871 47.1154 2.43871 48.0774V50.1677H2.09032C1.12828 50.1677 0.348387 50.9476 0.348387 51.9097V54H19.8581V51.9097C19.8581 50.9476 19.0782 50.1677 18.1161 50.1677H17.7677V48.0774C17.7677 47.1154 16.9879 46.3355 16.0258 46.3355H13.9355V7.66452H0Z" fill="white"/>
<path d="M42.8516 46.3355C41.8896 46.3355 41.1097 47.1154 41.1097 48.0774V50.1677H40.7613C39.7993 50.1677 39.0194 50.9476 39.0194 51.9097V54H58.529V51.9097C58.529 50.9476 57.7491 50.1677 56.7871 50.1677H56.4387V48.0774C56.4387 47.1154 55.6588 46.3355 54.6968 46.3355V15.329H56.6129L58.8774 7.66452H44.9419V46.3355H42.8516Z" fill="white"/>
</svg>
